<?xml version="1.0" encoding="UTF-8" standalone="no"?>
<!-- Created with Inkscape (http://www.inkscape.org/) -->

<svg
   xmlns:dc="http://purl.org/dc/elements/1.1/"
   xmlns:cc="http://creativecommons.org/ns#"
   xmlns:rdf="http://www.w3.org/1999/02/22-rdf-syntax-ns#"
   xmlns:svg="http://www.w3.org/2000/svg"
   xmlns="http://www.w3.org/2000/svg"
   xmlns:sodipodi="http://sodipodi.sourceforge.net/DTD/sodipodi-0.dtd"
   xmlns:inkscape="http://www.inkscape.org/namespaces/inkscape"
   version="1.1"
   id="svg10"
   xml:space="preserve"
   width="60.058666"
   height="12.968"
   viewBox="0 0 60.058666 12.968"
   sodipodi:docname="inductor.svg"
   inkscape:version="0.92.4 (5da689c313, 2019-01-14)"><metadata
     id="metadata16"><rdf:RDF><cc:Work
         rdf:about=""><dc:format>image/svg+xml</dc:format><dc:type
           rdf:resource="http://purl.org/dc/dcmitype/StillImage" /><dc:title></dc:title></cc:Work></rdf:RDF></metadata><defs
     id="defs14" /><sodipodi:namedview
     pagecolor="#ffffff"
     bordercolor="#666666"
     borderopacity="1"
     objecttolerance="10"
     gridtolerance="10"
     guidetolerance="10"
     inkscape:pageopacity="0"
     inkscape:pageshadow="2"
     inkscape:window-width="1920"
     inkscape:window-height="1001"
     id="namedview12"
     showgrid="false"
     inkscape:zoom="14.65234"
     inkscape:cx="39.16962"
     inkscape:cy="1.3740798"
     inkscape:window-x="-9"
     inkscape:window-y="-9"
     inkscape:window-maximized="1"
     inkscape:current-layer="g18" /><g
     id="g18"
     inkscape:groupmode="layer"
     inkscape:label="inductor"
     transform="matrix(1.3333333,0,0,-1.3333333,0,12.968)"><g
       id="g20"
       transform="translate(0.199,3.534)"><g
         id="g22"><g
           id="g24"><path
             d="M 0,0 H 0.19925 M 0,0 h 10.41733 m 23.81143,0 h 10.41736 m -0.19925,0 h 0.19925"
             style="fill:none;stroke:#000000;stroke-width:0.3985;stroke-linecap:butt;stroke-linejoin:miter;stroke-miterlimit:10;stroke-dasharray:none;stroke-opacity:1"
             id="path26"
             inkscape:connector-curvature="0" /><g
             id="g28" /><g
             id="g30" /><g
             id="g32"><path
               d="m 10.01883,-0.15938 c 0,3.28768 1.63473,5.95284 3.65135,5.95284 2.0166,0 3.65134,-2.66516 3.65134,-5.95284 0,-1.64377 -0.66626,-2.97629 -1.48813,-2.97629 -0.82189,0 -1.48814,1.33252 -1.48814,2.97629 0,3.28768 1.63475,5.95284 3.65135,5.95284 2.0166,0 3.65135,-2.66516 3.65135,-5.95284 0,-1.64377 -0.66626,-2.97629 -1.48815,-2.97629 -0.82188,0 -1.48812,1.33252 -1.48812,2.97629 0,3.28768 1.63473,5.95284 3.65133,5.95284 2.0166,0 3.65136,-2.66516 3.65136,-5.95284 0,-1.64377 -0.66627,-2.97629 -1.48813,-2.97629 -0.82189,0 -1.48814,1.33252 -1.48814,2.97629 0,3.28768 1.63474,5.95284 3.65134,5.95284 2.01661,0 3.65134,-2.66516 3.65134,-5.95284 0,-1.64377 -0.66624,-2.97629 -1.48813,-2.97629 -0.82188,0 -1.48814,1.33252 -1.48814,2.97629 0,3.28768 1.63475,5.95284 3.65135,5.95284 2.0166,0 3.65135,-2.66516 3.65135,-5.95284"
               style="fill:none;stroke:#000000;stroke-width:0.79699999;stroke-linecap:butt;stroke-linejoin:bevel;stroke-miterlimit:10;stroke-dasharray:none;stroke-opacity:1"
               id="path34"
               inkscape:connector-curvature="0" /><g
               id="g36"
               transform="translate(22.323)"><g
                 id="g38" /><g
                 id="g40"
                 transform="translate(-22.323)" /></g></g><g
             id="g42" /><g
             id="g44" /></g></g></g></g></svg>